# xmcd CD database file
#
# Track frame offsets:
#	150
#	18412
#	36476
#	50927
#	66142
#	80067
#	97366
#	115232
#	132281
#	149092
#	164638
#	179171
#
# Disc length: 2599 seconds
#
# Revision: 1
# Processed by: cddbd v1.5.1PL0 Copyright (c) Steve Scherf et al.
# Submitted via: CDex 1.40Release
#
DISCID=c70a250c
DTITLE=Diego e Ricardo - Ta na cara
DYEAR=2005
DGENRE=Country
TTITLE0=Tá na cara
TTITLE1=Gol de Placa
TTITLE2=Bailão
TTITLE3=Amor de Pensamento
TTITLE4=Ai minha Nossa Senhora
TTITLE5=Tanto Tempo
TTITLE6=Cigana
TTITLE7=Aprendiz
TTITLE8=Bebedeira
TTITLE9=No calor dos teus abraços
TTITLE10=Saudade
TTITLE11=Perigo
EXTD=YEAR: 2005 ID3G: 2
EXTT0=
EXTT1=
EXTT2=
EXTT3=
EXTT4=
EXTT5=
EXTT6=
EXTT7=
EXTT8=
EXTT9=
EXTT10=
EXTT11=
PLAYORDER=
